G04 DipTrace 3.1.0.1*
G04 PCIUSB_mask_top.gbr*
%MOMM*%
G04 #@! TF.FileFunction,Soldermask,Top*
G04 #@! TF.Part,Single*
%AMOUTLINE1*
4,1,8,
0.608,2.64,
-0.608,2.64,
-0.608,-2.81401,
-0.44475,-3.13431,
-0.32982,-3.64,
0.32982,-3.64,
0.44475,-3.13431,
0.608,-2.81401,
0.608,2.64,
0*%
%ADD21R,1.7X1.7*%
%ADD68R,0.5X1.8*%
%ADD78C,0.35*%
%ADD79C,0.9*%
%ADD88R,1.6X2.4*%
%ADD92R,9.2X10.8*%
%ADD94R,3.2X1.65*%
%ADD96R,0.8X2.35*%
%ADD98R,0.7X2.0*%
%ADD99R,9.2X9.2*%
%ADD102R,1.8X0.5*%
%ADD104R,0.8X2.2*%
%ADD106R,3.45X2.35*%
%ADD108R,1.15X2.35*%
%ADD110R,0.75X1.15*%
%ADD112R,0.5X0.85*%
%ADD114R,0.85X0.5*%
%ADD116R,2.0X1.8*%
%ADD118R,1.8X2.0*%
%ADD123C,6.2*%
%ADD125R,1.5X1.7*%
%ADD127C,1.9*%
%ADD129C,1.54*%
%ADD131R,1.54X1.54*%
%ADD133C,1.89*%
%ADD135R,1.89X1.89*%
%ADD137C,4.96*%
%ADD139R,2.2X2.7*%
%ADD141R,0.7X2.5*%
%ADD143O,4.7X2.2*%
%ADD145O,2.2X4.7*%
%ADD147O,2.2X5.2*%
%ADD149C,3.4*%
%ADD151C,1.8*%
%ADD153R,1.8X1.8*%
%ADD157R,1.7X1.5*%
%ADD159R,1.8X2.9*%
%ADD161R,2.9X1.8*%
%ADD163R,1.3X1.2*%
%ADD165R,1.2X1.3*%
%ADD167R,1.8X3.35*%
%ADD169C,1.9*%
%ADD171R,1.9X1.9*%
%ADD182OUTLINE1*%
%FSLAX35Y35*%
G04*
G71*
G90*
G75*
G01*
G04 TopMask*
%LPD*%
D171*
X5726227Y7735860D3*
D169*
Y8185860D3*
X5076227D3*
Y7735860D3*
D171*
X5726227Y8450310D3*
D169*
Y8900310D3*
X5076227D3*
Y8450310D3*
D171*
X5726500Y9148277D3*
D169*
Y9598277D3*
X5076500D3*
Y9148277D3*
D167*
X2996000Y7671900D3*
Y7181900D3*
X3027750Y3766650D3*
Y3276650D3*
X3059500Y5481150D3*
Y4991150D3*
X3250000Y9735650D3*
Y9245650D3*
D165*
X3646383Y5703647D3*
Y5533647D3*
X3789273Y3301627D3*
Y3131627D3*
Y2401300D3*
Y2231300D3*
D167*
X4313203Y3465037D3*
Y2975037D3*
Y2544190D3*
Y2054190D3*
D163*
X4503723Y6243453D3*
X4333723D3*
X5408693Y6259330D3*
X5238693D3*
D161*
X6139250Y9195900D3*
Y9475900D3*
D159*
X6282127Y8338650D3*
X6562127D3*
X6774250D3*
X7054250D3*
D161*
X7726687Y9244143D3*
Y8964143D3*
D163*
X7885453Y4052473D3*
X8055453D3*
X9695393Y8736090D3*
X9865393D3*
D165*
X11489457Y8053393D3*
Y8223393D3*
X12806750Y2591900D3*
Y2421900D3*
D167*
X13283000Y2750650D3*
Y2260650D3*
D165*
X13743943Y2623573D3*
Y2453573D3*
D167*
X14680000Y2750650D3*
Y2260650D3*
X17220000Y2750650D3*
Y2260650D3*
D78*
X1153747Y5386113D3*
Y1369317D3*
X1217253Y5529003D3*
Y5243223D3*
Y1512207D3*
Y1226427D3*
X1360143Y5592510D3*
Y5179717D3*
Y1575713D3*
Y1162920D3*
X1487157Y5529003D3*
Y1512207D3*
X1503033Y5243223D3*
Y1226427D3*
X1566540Y5386113D3*
Y1369317D3*
D153*
X2293850Y4577490D3*
D151*
Y4327490D3*
Y4127490D3*
Y3877490D3*
D149*
X2023850Y4884490D3*
Y3570490D3*
D153*
X2297500Y8703777D3*
D151*
Y8453777D3*
Y8253777D3*
Y8003777D3*
D149*
X2027500Y9010777D3*
Y7696777D3*
D153*
X2297500Y6830527D3*
D151*
Y6580527D3*
Y6380527D3*
Y6130527D3*
D149*
X2027500Y7137527D3*
Y5823527D3*
D153*
X2297500Y2734773D3*
D151*
Y2484773D3*
Y2284773D3*
Y2034773D3*
D149*
X2027500Y3041773D3*
Y1727773D3*
D147*
X2376873Y10116650D3*
D145*
X1776873D3*
D143*
X2076873Y9626650D3*
D171*
X2995440Y6132317D3*
D169*
Y6386317D3*
Y6640317D3*
D171*
X3123000Y10846900D3*
D169*
Y10592900D3*
Y10338900D3*
D171*
X3250000Y8306900D3*
D169*
Y8560900D3*
Y8814900D3*
D171*
X3631000Y6655900D3*
D169*
Y6909900D3*
Y7163900D3*
D141*
X4139000Y10338900D3*
X4059000D3*
X3979000D3*
X3899000D3*
D139*
X4424000Y10348900D3*
X3534000D3*
X4424000Y10898900D3*
X3534000D3*
D79*
X4198953Y10598900D3*
X3758953D3*
D171*
X3885000Y8306900D3*
D169*
Y8560900D3*
Y8814900D3*
D171*
X5345500Y5703400D3*
D169*
Y5449400D3*
X5091500Y5703400D3*
Y5449400D3*
X4837500Y5703400D3*
Y5449400D3*
X4583500Y5703400D3*
Y5449400D3*
X4329500Y5703400D3*
Y5449400D3*
D171*
X5345187Y4290623D3*
D169*
Y4036623D3*
X5091187Y4290623D3*
Y4036623D3*
X4837187Y4290623D3*
Y4036623D3*
X4583187Y4290623D3*
Y4036623D3*
X4329187Y4290623D3*
Y4036623D3*
D137*
X6288383Y10195150D3*
X8787383D3*
D135*
X8091883Y10053147D3*
D133*
X7814883D3*
X7537883D3*
X7260883D3*
X6983883D3*
X7953383Y10337150D3*
X7676383D3*
X7399383D3*
X7122383D3*
D131*
X6440677Y3480913D3*
D129*
X6186677D3*
X6440677Y3734913D3*
X6186677D3*
X6440677Y3988913D3*
X6186677D3*
X6440677Y4242913D3*
X6186677D3*
X6440677Y4496913D3*
X6186677D3*
X6440677Y4750913D3*
X6186677D3*
X6440677Y5004913D3*
X6186677D3*
X6440677Y5258913D3*
X6186677D3*
X6440677Y5512913D3*
X6186677D3*
X6440677Y5766913D3*
X6186677D3*
X6440677Y6020913D3*
X6186677D3*
X6440677Y6274913D3*
X6186677D3*
X6440677Y6528913D3*
X6186677D3*
X6440677Y6782913D3*
X6186677D3*
X6440677Y7036913D3*
X6186677D3*
D171*
X6329540Y2036137D3*
D169*
X6583540D3*
X6329540Y2290137D3*
X6583540D3*
D171*
X6488307Y7926380D3*
D169*
X6742307D3*
X6996307D3*
X7250307D3*
X7504307D3*
X7758307D3*
X8012307D3*
D171*
X6440543Y2941093D3*
D169*
Y2687093D3*
D171*
X7250387Y7672353D3*
D169*
X6996387D3*
X6742387D3*
D171*
X6694570Y2941093D3*
D169*
Y2687093D3*
D171*
X6948757Y2687107D3*
D169*
Y2941107D3*
D171*
X7202757D3*
D169*
Y2687107D3*
D171*
X8012467Y7672353D3*
D169*
X7758467D3*
X7504467D3*
D127*
X11029033Y3687310D3*
D169*
Y3433310D3*
X10775033Y3687310D3*
Y3433310D3*
X10521033Y3687310D3*
Y3433310D3*
X10267033Y3687310D3*
Y3433310D3*
X10013033Y3687310D3*
Y3433310D3*
X9759033Y3687310D3*
Y3433310D3*
X9505033Y3687310D3*
Y3433310D3*
X9251033Y3687310D3*
Y3433310D3*
X8997033Y3687310D3*
Y3433310D3*
X8743033Y3687310D3*
Y3433310D3*
X8489033Y3687310D3*
Y3433310D3*
X8235033Y3687310D3*
Y3433310D3*
X7981033Y3687310D3*
Y3433310D3*
X7727033Y3687310D3*
Y3433310D3*
X7473033Y3687310D3*
Y3433310D3*
D171*
X8266493Y8212160D3*
D169*
Y8466160D3*
Y8720160D3*
Y8974160D3*
Y9228160D3*
Y9482160D3*
D171*
X9377860Y10180867D3*
D169*
Y10434867D3*
X9631860Y10180867D3*
Y10434867D3*
X9885860Y10180867D3*
Y10434867D3*
X10139860Y10180867D3*
Y10434867D3*
X10393860Y10180867D3*
Y10434867D3*
X10647860Y10180867D3*
Y10434867D3*
D171*
X9600133Y3052243D3*
D169*
Y2798243D3*
D171*
X9854160Y2798217D3*
D169*
X10108160D3*
X9854160Y3052217D3*
X10108160D3*
D171*
X10362213Y3052243D3*
D169*
Y2798243D3*
D127*
X10568610Y2163150D3*
D169*
X10822610D3*
X11076610D3*
D171*
X11124000Y6147900D3*
D169*
Y5893900D3*
X10870000Y6147900D3*
Y5893900D3*
X10616000Y6147900D3*
Y5893900D3*
X11124000Y5639900D3*
X10870000D3*
X10616000D3*
D171*
X10616240Y3052243D3*
D169*
Y2798243D3*
D171*
X10917897Y3163380D3*
D169*
Y2909380D3*
D171*
X11108417Y10784180D3*
D169*
X11362417D3*
X11108417Y10530180D3*
X11362417D3*
X11108417Y10276180D3*
X11362417D3*
X11108417Y10022180D3*
X11362417D3*
D171*
X11378000Y7163900D3*
D169*
X11632000D3*
X11378000Y6909900D3*
X11632000D3*
X11378000Y6655900D3*
X11632000D3*
X11378000Y6401900D3*
X11632000D3*
X11378000Y6147900D3*
X11632000D3*
X11378000Y5893900D3*
X11632000D3*
X11378000Y5639900D3*
X11632000D3*
X11378000Y5385900D3*
X11632000D3*
X11378000Y5131900D3*
X11632000D3*
X11378000Y4877900D3*
X11632000D3*
X11378000Y4623900D3*
X11632000D3*
X11378000Y4369900D3*
X11632000D3*
X11378000Y4115900D3*
X11632000D3*
X11378000Y3861900D3*
X11632000D3*
X11378000Y3607900D3*
X11632000D3*
D135*
X12632577Y10052010D3*
D133*
X12908677D3*
X13184777D3*
X13460877D3*
X13736977D3*
X14013077D3*
X14289177D3*
X14565277D3*
X14841377D3*
X15117477D3*
X15393577D3*
X15669677D3*
X15944923D3*
X12770643Y10336013D3*
X13046743D3*
X13322843D3*
X13598943D3*
X13875043D3*
X14151143D3*
X14427243D3*
X14703343D3*
X14979443D3*
X15255543D3*
X15531643D3*
X15807743D3*
D137*
X11936577Y10194010D3*
X16641777D3*
D171*
X11886373Y6910273D3*
D169*
Y7164273D3*
Y7418273D3*
Y7672273D3*
Y7926273D3*
Y8180273D3*
D171*
X12330920Y2845847D3*
D169*
Y3099847D3*
D171*
X12584947Y3099873D3*
D169*
Y2845873D3*
D171*
X14013250Y2750650D3*
D169*
Y2496650D3*
Y2242650D3*
D171*
X17332070Y8704337D3*
D169*
X17078070D3*
X16824070D3*
X16570070D3*
X16316070D3*
X16062070D3*
X15808070D3*
X15554070D3*
X15300070D3*
X15046070D3*
X14792070D3*
D171*
X17490837Y10022100D3*
D169*
X17236837D3*
X17490837Y10276100D3*
X17236837D3*
X17490837Y10530100D3*
X17236837D3*
X17490837Y10784100D3*
X17236837D3*
D157*
X15315733Y8196283D3*
Y8386283D3*
X15569760Y8196283D3*
Y8386283D3*
X15807910Y8196283D3*
Y8386283D3*
X16061937Y8196283D3*
Y8386283D3*
X16315963Y8196283D3*
Y8386283D3*
X16569990Y8196283D3*
Y8386283D3*
X16824017Y8196283D3*
Y8386283D3*
X17078043Y8196283D3*
Y8386283D3*
D125*
X17109797Y3306270D3*
X17299797D3*
X17109797Y3512667D3*
X17299797D3*
X17109797Y3719063D3*
X17299797D3*
X17109797Y3925460D3*
X17299797D3*
D123*
X1360143Y5386113D3*
Y1369317D3*
D141*
X3819000Y10338900D3*
D182*
X5408667Y1448700D3*
X5662667D3*
X5789667D3*
X5916667D3*
X6043667D3*
X6170667D3*
X6424667D3*
X6932667D3*
X7059667D3*
X7186667D3*
X7313667D3*
X7440667D3*
X7567667D3*
X7694667D3*
X7821667D3*
X7948667D3*
X8075667D3*
X8329667D3*
D21*
X8425260Y5052703D3*
Y4878060D3*
Y4703417D3*
D182*
X8456667Y1448700D3*
X8583667D3*
X8710667D3*
X8837667D3*
X9091667D3*
X9218667D3*
X9345667D3*
X9472667D3*
X9726667D3*
X9853667D3*
D21*
X9901790Y5497250D3*
Y5179717D3*
D182*
X9980667Y1448700D3*
X10107667D3*
X10361667D3*
X10615667D3*
X10742667D3*
X10869667D3*
X10996667D3*
X11123667D3*
X11250667D3*
X11631667D3*
X11758667D3*
X11885667D3*
X12012667D3*
X12139667D3*
X12266667D3*
X12393667D3*
X12520667D3*
X12647667D3*
X12774667D3*
X12901667D3*
D118*
X2249873Y7402027D3*
X2529873D3*
X2265750Y5354150D3*
X2545750D3*
X2296867Y3226887D3*
X2576867D3*
X2392750Y9307027D3*
X2672750D3*
D163*
X2551500Y6147900D3*
X2721500D3*
X2757290Y6910273D3*
X2587290D3*
X2646750Y8084650D3*
X2816750D3*
X2837250Y8910150D3*
X2667250D3*
X2963687Y4338253D3*
X2793687D3*
X2963687Y4131857D3*
X2793687D3*
D165*
X3631000Y7449650D3*
Y7619650D3*
Y6147900D3*
Y6317900D3*
X3725767Y9990347D3*
Y9820347D3*
X3885000Y7830650D3*
Y8000650D3*
X3948500Y9100650D3*
Y9270650D3*
X3963917Y9942717D3*
Y9772717D3*
D116*
X4583500Y9957900D3*
Y9677900D3*
D163*
X4868887Y7323067D3*
X4698887D3*
X4868887Y7164300D3*
X4698887D3*
D114*
X4885123Y6973400D3*
Y6923400D3*
Y6873400D3*
Y6823400D3*
Y6773400D3*
Y6723400D3*
Y6673400D3*
Y6623400D3*
X4725123D3*
Y6673400D3*
Y6723400D3*
Y6773400D3*
Y6823400D3*
Y6873400D3*
Y6923400D3*
Y6973400D3*
D165*
X5091160Y6370467D3*
Y6540467D3*
X5551583Y6370467D3*
Y6540467D3*
D163*
X5948500Y2036137D3*
X6118500D3*
X6086000Y7878303D3*
X6256000D3*
X6086000Y7751277D3*
X6256000D3*
X6086000Y7624277D3*
X6256000D3*
D165*
X6186650Y2814093D3*
Y2984093D3*
D112*
X6853470Y2210780D3*
X6903470D3*
X6953470D3*
X7003470D3*
X7053470D3*
X7103470D3*
X7153470D3*
X7203470D3*
Y2370780D3*
X7153470D3*
X7103470D3*
X7053470D3*
X7003470D3*
X6953470D3*
X6903470D3*
X6853470D3*
D165*
X7440907Y2131397D3*
Y2301397D3*
D163*
X7583797Y5529003D3*
X7753797D3*
D112*
X7694933Y2210780D3*
X7744933D3*
X7794933D3*
X7844933D3*
X7894933D3*
X7944933D3*
X7994933D3*
X8044933D3*
Y2370780D3*
X7994933D3*
X7944933D3*
X7894933D3*
X7844933D3*
X7794933D3*
X7744933D3*
X7694933D3*
D110*
X8266493Y6815013D3*
X8346493D3*
X8426493D3*
X8506493D3*
Y6635013D3*
X8426493D3*
X8346493D3*
X8266493D3*
D112*
X8457013Y2210780D3*
X8507013D3*
X8557013D3*
X8607013D3*
X8657013D3*
X8707013D3*
X8757013D3*
X8807013D3*
Y2370780D3*
X8757013D3*
X8707013D3*
X8657013D3*
X8607013D3*
X8557013D3*
X8507013D3*
X8457013D3*
D110*
X8901560Y6640370D3*
X8981560D3*
X9061560D3*
X9141560D3*
Y6820370D3*
X9061560D3*
X8981560D3*
X8901560D3*
D112*
X9250847Y2210780D3*
X9300847D3*
X9350847D3*
X9400847D3*
X9450847D3*
X9500847D3*
X9550847D3*
X9600847D3*
Y2370780D3*
X9550847D3*
X9500847D3*
X9450847D3*
X9400847D3*
X9350847D3*
X9300847D3*
X9250847D3*
D163*
X10092310Y9037747D3*
X9922310D3*
D112*
X10012927Y2194903D3*
X10062927D3*
X10112927D3*
X10162927D3*
X10212927D3*
X10262927D3*
X10312927D3*
X10362927D3*
Y2354903D3*
X10312927D3*
X10262927D3*
X10212927D3*
X10162927D3*
X10112927D3*
X10062927D3*
X10012927D3*
D163*
X11060787Y2417177D3*
X10890787D3*
D112*
X11314813Y2337793D3*
X11364813D3*
X11414813D3*
X11464813D3*
X11514813D3*
X11564813D3*
X11614813D3*
X11664813D3*
Y2497793D3*
X11614813D3*
X11564813D3*
X11514813D3*
X11464813D3*
X11414813D3*
X11364813D3*
X11314813D3*
X12140000Y2083900D3*
X12190000D3*
X12240000D3*
X12290000D3*
X12340000D3*
X12390000D3*
X12440000D3*
X12490000D3*
Y2243900D3*
X12440000D3*
X12390000D3*
X12340000D3*
X12290000D3*
X12240000D3*
X12190000D3*
X12140000D3*
D165*
X12426283Y9466417D3*
Y9636417D3*
X12743937Y9466417D3*
Y9636417D3*
X13124937Y9466417D3*
Y9636417D3*
X13505937Y9466417D3*
Y9636417D3*
X13791677Y9482293D3*
Y9652293D3*
X14109210Y9482293D3*
Y9652293D3*
X14426710Y9482293D3*
Y9652293D3*
X14744210Y9482293D3*
Y9652293D3*
X15093460Y9482293D3*
Y9652293D3*
D108*
X5059407Y2956983D3*
X5289407D3*
X5519407D3*
D106*
X5289407Y3536983D3*
D108*
X5059407Y2036137D3*
X5289407D3*
X5519407D3*
D106*
X5289407Y2616137D3*
D104*
X6393250Y8719650D3*
X6520250D3*
X6647250D3*
X6774250D3*
X6901250D3*
X7028250D3*
X7155250D3*
X7282250D3*
Y9459650D3*
X7155250D3*
X7028250D3*
X6901250D3*
X6774250D3*
X6647250D3*
X6520250D3*
X6393250D3*
D102*
X8076000Y6020900D3*
Y5970900D3*
Y5920900D3*
Y5870900D3*
Y5820900D3*
Y5770900D3*
Y5720900D3*
Y5670900D3*
Y5620900D3*
Y5570900D3*
Y5520900D3*
Y5470900D3*
Y5420900D3*
Y5370900D3*
Y5320900D3*
Y5270900D3*
Y5220900D3*
Y5170900D3*
Y5120900D3*
Y5070900D3*
Y5020900D3*
Y4970900D3*
Y4920900D3*
Y4870900D3*
Y4820900D3*
Y4770900D3*
Y4720900D3*
Y4670900D3*
Y4620900D3*
Y4570900D3*
Y4520900D3*
Y4470900D3*
Y4420900D3*
Y4370900D3*
Y4320900D3*
Y4270900D3*
D68*
X8271000Y4075900D3*
X8321000D3*
X8371000D3*
X8421000D3*
X8471000D3*
X8521000D3*
X8571000D3*
X8621000D3*
X8671000D3*
X8721000D3*
X8771000D3*
X8821000D3*
X8871000D3*
X8921000D3*
X8971000D3*
X9021000D3*
X9071000D3*
X9121000D3*
X9171000D3*
X9221000D3*
X9271000D3*
X9321000D3*
X9371000D3*
X9421000D3*
X9471000D3*
X9521000D3*
X9571000D3*
X9621000D3*
X9671000D3*
X9721000D3*
X9771000D3*
X9821000D3*
X9871000D3*
X9921000D3*
X9971000D3*
X10021000D3*
D102*
X10216000Y4270900D3*
Y4320900D3*
Y4370900D3*
Y4420900D3*
Y4470900D3*
Y4520900D3*
Y4570900D3*
Y4620900D3*
Y4670900D3*
Y4720900D3*
Y4770900D3*
Y4820900D3*
Y4870900D3*
Y4920900D3*
Y4970900D3*
Y5020900D3*
Y5070900D3*
Y5120900D3*
Y5170900D3*
Y5220900D3*
Y5270900D3*
Y5320900D3*
Y5370900D3*
Y5420900D3*
Y5470900D3*
Y5520900D3*
Y5570900D3*
Y5620900D3*
Y5670900D3*
Y5720900D3*
Y5770900D3*
Y5820900D3*
Y5870900D3*
Y5920900D3*
Y5970900D3*
Y6020900D3*
D68*
X10021000Y6215900D3*
X9971000D3*
X9921000D3*
X9871000D3*
X9821000D3*
X9771000D3*
X9721000D3*
X9671000D3*
X9621000D3*
X9571000D3*
X9521000D3*
X9471000D3*
X9421000D3*
X9371000D3*
X9321000D3*
X9271000D3*
X9221000D3*
X9171000D3*
X9121000D3*
X9071000D3*
X9021000D3*
X8971000D3*
X8921000D3*
X8871000D3*
X8821000D3*
X8771000D3*
X8721000D3*
X8671000D3*
X8621000D3*
X8571000D3*
X8521000D3*
X8471000D3*
X8421000D3*
X8371000D3*
X8321000D3*
X8271000D3*
D99*
X9146000Y5145900D3*
D98*
X8822177Y7323067D3*
X8902143D3*
X8982143D3*
X9062143D3*
X9142177D3*
X9222143D3*
X9302177D3*
X9382177D3*
X9462177D3*
X9542177D3*
X9622177D3*
X9702177D3*
X9782177D3*
X9862177D3*
X9942177D3*
X10022177D3*
X10102177D3*
X10182143D3*
X10262143D3*
X10342143D3*
X10422143D3*
X10502177D3*
X10582177D3*
X10662177D3*
X10742177D3*
X10822177D3*
X10902177D3*
Y8443067D3*
X10822177D3*
X10742177D3*
X10662177D3*
X10582177D3*
X10502177D3*
X10422143D3*
X10342143D3*
X10262143D3*
X10182143D3*
X10102177D3*
X10022177D3*
X9942177D3*
X9862177D3*
X9782177D3*
X9702177D3*
X9622177D3*
X9542177D3*
X9462177D3*
X9382177D3*
X9302177D3*
X9222143D3*
X9142177D3*
X9062143D3*
X8982143D3*
X8902143D3*
X8822177D3*
D96*
X13108877Y6148193D3*
X13235877D3*
X13362877D3*
X13489877D3*
X13616877D3*
X13743877D3*
X13870877D3*
X13997877D3*
X14124877D3*
X14251877D3*
X14378877D3*
X14505877D3*
X14632877D3*
X14759877D3*
Y7228193D3*
X14632877D3*
X14505877D3*
X14378877D3*
X14251877D3*
X14124877D3*
X13997877D3*
X13870877D3*
X13743877D3*
X13616877D3*
X13489877D3*
X13362877D3*
X13235877D3*
X13108877D3*
X13125493Y4401800D3*
X13252493D3*
X13379493D3*
X13506493D3*
X13633493D3*
X13760493D3*
X13887493D3*
X14014493D3*
X14141493D3*
X14268493D3*
X14395493D3*
X14522493D3*
X14649493D3*
X14776493D3*
Y5481800D3*
X14649493D3*
X14522493D3*
X14395493D3*
X14268493D3*
X14141493D3*
X14014493D3*
X13887493D3*
X13760493D3*
X13633493D3*
X13506493D3*
X13379493D3*
X13252493D3*
X13125493D3*
X15172843Y4401760D3*
X15299843D3*
X15426843D3*
X15553843D3*
X15680843D3*
X15807843D3*
X15934843D3*
X16061843D3*
X16188843D3*
X16315843D3*
X16442843D3*
X16569843D3*
X16696843D3*
X16823843D3*
Y5481760D3*
X16696843D3*
X16569843D3*
X16442843D3*
X16315843D3*
X16188843D3*
X16061843D3*
X15934843D3*
X15807843D3*
X15680843D3*
X15553843D3*
X15426843D3*
X15299843D3*
X15172843D3*
X15204597Y6148193D3*
X15331597D3*
X15458597D3*
X15585597D3*
X15712597D3*
X15839597D3*
X15966597D3*
X16093597D3*
X16220597D3*
X16347597D3*
X16474597D3*
X16601597D3*
X16728597D3*
X16855597D3*
Y7228193D3*
X16728597D3*
X16601597D3*
X16474597D3*
X16347597D3*
X16220597D3*
X16093597D3*
X15966597D3*
X15839597D3*
X15712597D3*
X15585597D3*
X15458597D3*
X15331597D3*
X15204597D3*
D94*
X15299857Y2845847D3*
Y2591847D3*
Y2337847D3*
D92*
X16259857Y2591847D3*
D88*
X7202757Y5243223D3*
X7452740Y5243217D3*
X7452757Y4613223D3*
X7202740Y4613217D3*
G36*
X5059407Y1702727D2*
X11346567D1*
Y1004153D1*
X5059407D1*
Y1702727D1*
G37*
G36*
X11537087D2*
X12997740D1*
Y1004153D1*
X11537087D1*
Y1702727D1*
G37*
M02*
