G04 DipTrace 3.1.0.1*
G04 PCIUSB_mask_bottom.gbr*
%MOMM*%
G04 #@! TF.FileFunction,Soldermask,Bot*
G04 #@! TF.Part,Single*
%AMOUTLINE1*
4,1,8,
0.608,2.64,
-0.608,2.64,
-0.608,-2.81401,
-0.44475,-3.13431,
-0.32982,-3.64,
0.32982,-3.64,
0.44475,-3.13431,
0.608,-2.81401,
0.608,2.64,
0*%
%ADD21R,1.7X1.7*%
%ADD73R,2.0X0.6*%
%ADD78C,0.35*%
%ADD79C,0.9*%
%ADD91R,2.2X0.8*%
%ADD102R,1.8X0.5*%
%ADD120R,1.25X0.85*%
%ADD123C,6.2*%
%ADD127C,1.9*%
%ADD129C,1.54*%
%ADD131R,1.54X1.54*%
%ADD133C,1.89*%
%ADD135R,1.89X1.89*%
%ADD137C,4.96*%
%ADD143O,4.7X2.2*%
%ADD145O,2.2X4.7*%
%ADD147O,2.2X5.2*%
%ADD149C,3.4*%
%ADD151C,1.8*%
%ADD153R,1.8X1.8*%
%ADD155R,0.85X1.25*%
%ADD157R,1.7X1.5*%
%ADD163R,1.3X1.2*%
%ADD165R,1.2X1.3*%
%ADD169C,1.9*%
%ADD171R,1.9X1.9*%
%ADD182OUTLINE1*%
%FSLAX35Y35*%
G04*
G71*
G90*
G75*
G01*
G04 BotMask*
%LPD*%
D171*
X5726227Y7735860D3*
D169*
Y8185860D3*
X5076227D3*
Y7735860D3*
D171*
X5726227Y8450310D3*
D169*
Y8900310D3*
X5076227D3*
Y8450310D3*
D171*
X5726500Y9148277D3*
D169*
Y9598277D3*
X5076500D3*
Y9148277D3*
D165*
X17442250Y2433150D3*
Y2263150D3*
X16792263Y4921047D3*
Y4751047D3*
X15966677Y7259560D3*
Y7089560D3*
D163*
X13870957Y4703417D3*
X14040957D3*
X13283520Y6830890D3*
X13453520D3*
D165*
X12378550Y2258410D3*
Y2428410D3*
X10378090Y2020260D3*
Y2190260D3*
D163*
X10235200Y3877830D3*
X10405200D3*
D165*
X9743023Y4576403D3*
Y4746403D3*
D163*
X9695393Y5830660D3*
X9525393D3*
X9314353Y5671893D3*
X9144353D3*
D165*
X8822177Y4576403D3*
Y4746403D3*
D163*
X8584027Y5671893D3*
X8754027D3*
D165*
X8282370Y2131397D3*
Y2301397D3*
X6837750Y6973400D3*
Y6803400D3*
X5456323Y4576403D3*
Y4746403D3*
D163*
Y5084457D3*
X5626323D3*
D165*
X5249927Y3417407D3*
Y3247407D3*
X4122683Y4596923D3*
Y4766923D3*
D157*
X3250000Y9608650D3*
Y9418650D3*
X3059500Y5321900D3*
Y5131900D3*
X3027750Y3670900D3*
Y3480900D3*
X2996000Y7544400D3*
Y7354400D3*
D155*
X4932393Y6052933D3*
X4742393D3*
X4837393Y6282933D3*
X4520000Y6052650D3*
X4330000D3*
X4425000Y6282650D3*
D78*
X1153747Y5386113D3*
Y1369317D3*
X1217253Y5529003D3*
Y5243223D3*
Y1512207D3*
Y1226427D3*
X1360143Y5592510D3*
Y5179717D3*
Y1575713D3*
Y1162920D3*
X1487157Y5529003D3*
Y1512207D3*
X1503033Y5243223D3*
Y1226427D3*
X1566540Y5386113D3*
Y1369317D3*
D153*
X2293850Y4577490D3*
D151*
Y4327490D3*
Y4127490D3*
Y3877490D3*
D149*
X2023850Y4884490D3*
Y3570490D3*
D153*
X2297500Y8703777D3*
D151*
Y8453777D3*
Y8253777D3*
Y8003777D3*
D149*
X2027500Y9010777D3*
Y7696777D3*
D153*
X2297500Y6830527D3*
D151*
Y6580527D3*
Y6380527D3*
Y6130527D3*
D149*
X2027500Y7137527D3*
Y5823527D3*
D153*
X2297500Y2734773D3*
D151*
Y2484773D3*
Y2284773D3*
Y2034773D3*
D149*
X2027500Y3041773D3*
Y1727773D3*
D147*
X2376873Y10116650D3*
D145*
X1776873D3*
D143*
X2076873Y9626650D3*
D171*
X2995440Y6132317D3*
D169*
Y6386317D3*
Y6640317D3*
D171*
X3123000Y10846900D3*
D169*
Y10592900D3*
Y10338900D3*
D171*
X3250000Y8306900D3*
D169*
Y8560900D3*
Y8814900D3*
D171*
X3631000Y6655900D3*
D169*
Y6909900D3*
Y7163900D3*
D79*
X4198953Y10598900D3*
X3758953D3*
D171*
X3885000Y8306900D3*
D169*
Y8560900D3*
Y8814900D3*
D171*
X5345500Y5703400D3*
D169*
Y5449400D3*
X5091500Y5703400D3*
Y5449400D3*
X4837500Y5703400D3*
Y5449400D3*
X4583500Y5703400D3*
Y5449400D3*
X4329500Y5703400D3*
Y5449400D3*
D171*
X5345187Y4290623D3*
D169*
Y4036623D3*
X5091187Y4290623D3*
Y4036623D3*
X4837187Y4290623D3*
Y4036623D3*
X4583187Y4290623D3*
Y4036623D3*
X4329187Y4290623D3*
Y4036623D3*
D137*
X6288383Y10195150D3*
X8787383D3*
D135*
X8091883Y10053147D3*
D133*
X7814883D3*
X7537883D3*
X7260883D3*
X6983883D3*
X7953383Y10337150D3*
X7676383D3*
X7399383D3*
X7122383D3*
D131*
X6440677Y3480913D3*
D129*
X6186677D3*
X6440677Y3734913D3*
X6186677D3*
X6440677Y3988913D3*
X6186677D3*
X6440677Y4242913D3*
X6186677D3*
X6440677Y4496913D3*
X6186677D3*
X6440677Y4750913D3*
X6186677D3*
X6440677Y5004913D3*
X6186677D3*
X6440677Y5258913D3*
X6186677D3*
X6440677Y5512913D3*
X6186677D3*
X6440677Y5766913D3*
X6186677D3*
X6440677Y6020913D3*
X6186677D3*
X6440677Y6274913D3*
X6186677D3*
X6440677Y6528913D3*
X6186677D3*
X6440677Y6782913D3*
X6186677D3*
X6440677Y7036913D3*
X6186677D3*
D171*
X6329540Y2036137D3*
D169*
X6583540D3*
X6329540Y2290137D3*
X6583540D3*
D171*
X6488307Y7926380D3*
D169*
X6742307D3*
X6996307D3*
X7250307D3*
X7504307D3*
X7758307D3*
X8012307D3*
D171*
X6440543Y2941093D3*
D169*
Y2687093D3*
D171*
X7250387Y7672353D3*
D169*
X6996387D3*
X6742387D3*
D171*
X6694570Y2941093D3*
D169*
Y2687093D3*
D171*
X6948757Y2687107D3*
D169*
Y2941107D3*
D171*
X7202757D3*
D169*
Y2687107D3*
D171*
X8012467Y7672353D3*
D169*
X7758467D3*
X7504467D3*
D127*
X11029033Y3687310D3*
D169*
Y3433310D3*
X10775033Y3687310D3*
Y3433310D3*
X10521033Y3687310D3*
Y3433310D3*
X10267033Y3687310D3*
Y3433310D3*
X10013033Y3687310D3*
Y3433310D3*
X9759033Y3687310D3*
Y3433310D3*
X9505033Y3687310D3*
Y3433310D3*
X9251033Y3687310D3*
Y3433310D3*
X8997033Y3687310D3*
Y3433310D3*
X8743033Y3687310D3*
Y3433310D3*
X8489033Y3687310D3*
Y3433310D3*
X8235033Y3687310D3*
Y3433310D3*
X7981033Y3687310D3*
Y3433310D3*
X7727033Y3687310D3*
Y3433310D3*
X7473033Y3687310D3*
Y3433310D3*
D171*
X8266493Y8212160D3*
D169*
Y8466160D3*
Y8720160D3*
Y8974160D3*
Y9228160D3*
Y9482160D3*
D171*
X9377860Y10180867D3*
D169*
Y10434867D3*
X9631860Y10180867D3*
Y10434867D3*
X9885860Y10180867D3*
Y10434867D3*
X10139860Y10180867D3*
Y10434867D3*
X10393860Y10180867D3*
Y10434867D3*
X10647860Y10180867D3*
Y10434867D3*
D171*
X9600133Y3052243D3*
D169*
Y2798243D3*
D171*
X9854160Y2798217D3*
D169*
X10108160D3*
X9854160Y3052217D3*
X10108160D3*
D171*
X10362213Y3052243D3*
D169*
Y2798243D3*
D127*
X10568610Y2163150D3*
D169*
X10822610D3*
X11076610D3*
D171*
X11124000Y6147900D3*
D169*
Y5893900D3*
X10870000Y6147900D3*
Y5893900D3*
X10616000Y6147900D3*
Y5893900D3*
X11124000Y5639900D3*
X10870000D3*
X10616000D3*
D171*
X10616240Y3052243D3*
D169*
Y2798243D3*
D171*
X10917897Y3163380D3*
D169*
Y2909380D3*
D171*
X11108417Y10784180D3*
D169*
X11362417D3*
X11108417Y10530180D3*
X11362417D3*
X11108417Y10276180D3*
X11362417D3*
X11108417Y10022180D3*
X11362417D3*
D171*
X11378000Y7163900D3*
D169*
X11632000D3*
X11378000Y6909900D3*
X11632000D3*
X11378000Y6655900D3*
X11632000D3*
X11378000Y6401900D3*
X11632000D3*
X11378000Y6147900D3*
X11632000D3*
X11378000Y5893900D3*
X11632000D3*
X11378000Y5639900D3*
X11632000D3*
X11378000Y5385900D3*
X11632000D3*
X11378000Y5131900D3*
X11632000D3*
X11378000Y4877900D3*
X11632000D3*
X11378000Y4623900D3*
X11632000D3*
X11378000Y4369900D3*
X11632000D3*
X11378000Y4115900D3*
X11632000D3*
X11378000Y3861900D3*
X11632000D3*
X11378000Y3607900D3*
X11632000D3*
D135*
X12632577Y10052010D3*
D133*
X12908677D3*
X13184777D3*
X13460877D3*
X13736977D3*
X14013077D3*
X14289177D3*
X14565277D3*
X14841377D3*
X15117477D3*
X15393577D3*
X15669677D3*
X15944923D3*
X12770643Y10336013D3*
X13046743D3*
X13322843D3*
X13598943D3*
X13875043D3*
X14151143D3*
X14427243D3*
X14703343D3*
X14979443D3*
X15255543D3*
X15531643D3*
X15807743D3*
D137*
X11936577Y10194010D3*
X16641777D3*
D171*
X11886373Y6910273D3*
D169*
Y7164273D3*
Y7418273D3*
Y7672273D3*
Y7926273D3*
Y8180273D3*
D171*
X12330920Y2845847D3*
D169*
Y3099847D3*
D171*
X12584947Y3099873D3*
D169*
Y2845873D3*
D171*
X14013250Y2750650D3*
D169*
Y2496650D3*
Y2242650D3*
D171*
X17332070Y8704337D3*
D169*
X17078070D3*
X16824070D3*
X16570070D3*
X16316070D3*
X16062070D3*
X15808070D3*
X15554070D3*
X15300070D3*
X15046070D3*
X14792070D3*
D171*
X17490837Y10022100D3*
D169*
X17236837D3*
X17490837Y10276100D3*
X17236837D3*
X17490837Y10530100D3*
X17236837D3*
X17490837Y10784100D3*
X17236837D3*
D123*
X1360143Y5386113D3*
Y1369317D3*
D182*
X5662667Y1448700D3*
X5789667D3*
X5916667D3*
X6043667D3*
X6297667D3*
X6932667D3*
X7059667D3*
X7186667D3*
X7313667D3*
X7567667D3*
X7821667D3*
X7948667D3*
X8075667D3*
X8202667D3*
X8329667D3*
D21*
X8425260Y5052703D3*
Y4878060D3*
Y4703417D3*
D182*
X8583667Y1448700D3*
X8710667D3*
X8837667D3*
X8964667D3*
X9091667D3*
X9345667D3*
X9472667D3*
X9599667D3*
X9726667D3*
X9853667D3*
D21*
X9901790Y5497250D3*
Y5179717D3*
D182*
X10107667Y1448700D3*
X10234667D3*
X10361667D3*
X10488667D3*
X10615667D3*
X10869667D3*
X10996667D3*
X11123667D3*
X11250667D3*
X11631667D3*
X11758667D3*
X11885667D3*
X12012667D3*
X12139667D3*
X12266667D3*
X12393667D3*
X12520667D3*
X12647667D3*
X12774667D3*
X12901667D3*
D120*
X16993303Y2624150D3*
Y2814150D3*
X17223303Y2719150D3*
X16140500Y2591900D3*
Y2781900D3*
X16370500Y2686900D3*
X14934000Y2560150D3*
Y2750150D3*
X15164000Y2655150D3*
D165*
X17437803Y2719400D3*
Y2889400D3*
X17078043Y8370927D3*
Y8200927D3*
X17029500Y2306150D3*
Y2136150D3*
X16824017Y8370927D3*
Y8200927D3*
X16707553Y2624150D3*
Y2794150D3*
X16569990Y8370927D3*
Y8200927D3*
X16426250Y2337900D3*
Y2167900D3*
X16315963Y8370927D3*
Y8200927D3*
X16144947Y2337400D3*
Y2167400D3*
X16061937Y8370927D3*
Y8200927D3*
X15807910Y8382160D3*
Y8212160D3*
X15763947Y2580150D3*
Y2750150D3*
X15569760Y8386803D3*
Y8216803D3*
X15315733Y8386803D3*
Y8216803D3*
D163*
X15315000Y2655400D3*
X15485000D3*
D165*
X14934693Y2385423D3*
Y2215423D3*
X14430443Y2591403D3*
Y2761403D3*
X14426640Y2956983D3*
Y3126983D3*
X12823097Y2829970D3*
Y2999970D3*
X12124523Y2829970D3*
Y2999970D3*
D163*
X10282830Y4227117D3*
X10112830D3*
X9965297Y3925460D3*
X9795297D3*
X9911343Y4100103D3*
X9741343D3*
X9711270Y3242763D3*
X9881270D3*
X9171463Y3258640D3*
X9341463D3*
X9160850Y2829970D3*
X9330850D3*
X9076203Y2512437D3*
X9246203D3*
X9076203Y2306040D3*
X9246203D3*
X7012237Y2036137D3*
X6842237D3*
X6658753Y3330537D3*
X6828753D3*
X6281910Y3211010D3*
X6451910D3*
D165*
X5662720Y4211240D3*
Y4041240D3*
D163*
X5361063Y6179947D3*
X5191063D3*
X4884763Y3671433D3*
X5054763D3*
X4424340D3*
X4594340D3*
X4503723Y5100333D3*
X4333723D3*
D165*
X4043750Y5651150D3*
Y5481150D3*
D102*
X11044910Y8386803D3*
Y8336803D3*
Y8286803D3*
Y8236803D3*
Y8186803D3*
Y8136803D3*
Y8086803D3*
Y8036803D3*
Y7986803D3*
Y7936803D3*
Y7886803D3*
Y7836803D3*
Y7786803D3*
Y7736803D3*
Y7686803D3*
Y7636803D3*
Y7586803D3*
Y7536803D3*
Y7486803D3*
Y7436803D3*
Y7386803D3*
Y7336803D3*
Y7286803D3*
Y7236803D3*
X9104910D3*
Y7286803D3*
Y7336803D3*
Y7386803D3*
Y7436803D3*
Y7486803D3*
Y7536803D3*
Y7586803D3*
Y7636803D3*
Y7686803D3*
Y7736803D3*
Y7786803D3*
Y7836803D3*
Y7886803D3*
Y7936803D3*
Y7986803D3*
Y8036803D3*
Y8086803D3*
Y8136803D3*
Y8186803D3*
Y8236803D3*
Y8286803D3*
Y8336803D3*
Y8386803D3*
D91*
X7726880Y7100753D3*
Y6973753D3*
Y6846753D3*
Y6719753D3*
X7186880D3*
Y6846753D3*
Y6973753D3*
Y7100753D3*
X7727000Y6370150D3*
Y6243150D3*
Y6116150D3*
Y5989150D3*
X7187000D3*
Y6116150D3*
Y6243150D3*
Y6370150D3*
X4519600Y4465267D3*
Y4592267D3*
Y4719267D3*
Y4846267D3*
X5059600D3*
Y4719267D3*
Y4592267D3*
Y4465267D3*
D73*
X5075623Y7179773D3*
Y7114773D3*
Y7049773D3*
Y6984773D3*
Y6919773D3*
Y6854773D3*
Y6789773D3*
Y6724773D3*
Y6659773D3*
Y6594773D3*
X4495603D3*
X4495623Y6659773D3*
Y6724773D3*
Y6789773D3*
Y6854773D3*
Y6919773D3*
Y6984773D3*
Y7049773D3*
Y7114773D3*
Y7179773D3*
G36*
X11537087Y1702727D2*
X12997740D1*
Y1004153D1*
X11537087D1*
Y1702727D1*
G37*
G36*
X5059407D2*
X11346567D1*
Y1004153D1*
X5059407D1*
Y1702727D1*
G37*
M02*
