M48
METRIC,0000.00
T01C0.35
T02C0.9
T03C1.0
T04C1.09
T05C1.1
T06C2.3
T07C3.0
T08C3.26
%
T03
X+005726Y+007736
X+005726Y+008186
X+005076Y+008186
X+005076Y+007736
X+005726Y+008450
X+005726Y+008900
X+005076Y+008900
X+005076Y+008450
X+005727Y+009148
X+005727Y+009598
X+005077Y+009598
X+005077Y+009148
T01
X+001154Y+005386
X+001154Y+001369
X+001217Y+005529
X+001217Y+005243
X+001217Y+001512
X+001217Y+001226
X+001360Y+005593
X+001360Y+005180
X+001360Y+001576
X+001360Y+001163
X+001487Y+005529
X+001487Y+001512
X+001503Y+005243
X+001503Y+001226
X+001567Y+005386
X+001567Y+001369
T02
X+002294Y+004577
X+002294Y+004327
X+002294Y+004127
X+002294Y+003877
T06
X+002024Y+004884
X+002024Y+003570
T02
X+002298Y+008704
X+002298Y+008454
X+002298Y+008254
X+002298Y+008004
T06
X+002028Y+009011
X+002028Y+007697
T02
X+002298Y+006831
X+002298Y+006581
X+002298Y+006381
X+002298Y+006131
T06
X+002028Y+007138
X+002028Y+005824
T02
X+002298Y+002735
X+002298Y+002485
X+002298Y+002285
X+002298Y+002035
T06
X+002028Y+003042
X+002028Y+001728
T03
X+002377Y+009967G85X+002377Y+010267
X+001777Y+009992G85X+001777Y+010242
X+002202Y+009627G85X+001952Y+009627
T05
X+002995Y+006132
X+002995Y+006386
X+002995Y+006640
X+003123Y+010847
X+003123Y+010593
X+003123Y+010339
X+003250Y+008307
X+003250Y+008561
X+003250Y+008815
X+003631Y+006656
X+003631Y+006910
X+003631Y+007164
T02
X+004199Y+010599
X+003759Y+010599
T05
X+003885Y+008307
X+003885Y+008561
X+003885Y+008815
X+005346Y+005703
X+005346Y+005449
X+005091Y+005703
X+005091Y+005449
X+004838Y+005703
X+004838Y+005449
X+004584Y+005703
X+004584Y+005449
X+004329Y+005703
X+004329Y+005449
X+005345Y+004291
X+005345Y+004037
X+005091Y+004291
X+005091Y+004037
X+004837Y+004291
X+004837Y+004037
X+004583Y+004291
X+004583Y+004037
X+004329Y+004291
X+004329Y+004037
T08
X+006288Y+010195
X+008787Y+010195
T04
X+008092Y+010053
X+007815Y+010053
X+007538Y+010053
X+007261Y+010053
X+006984Y+010053
X+007953Y+010337
X+007676Y+010337
X+007399Y+010337
X+007122Y+010337
T03
X+006441Y+003481
X+006187Y+003481
X+006441Y+003735
X+006187Y+003735
X+006441Y+003989
X+006187Y+003989
X+006441Y+004243
X+006187Y+004243
X+006441Y+004497
X+006187Y+004497
X+006441Y+004751
X+006187Y+004751
X+006441Y+005005
X+006187Y+005005
X+006441Y+005259
X+006187Y+005259
X+006441Y+005513
X+006187Y+005513
X+006441Y+005767
X+006187Y+005767
X+006441Y+006021
X+006187Y+006021
X+006441Y+006275
X+006187Y+006275
X+006441Y+006529
X+006187Y+006529
X+006441Y+006783
X+006187Y+006783
X+006441Y+007037
X+006187Y+007037
T05
X+006330Y+002036
X+006584Y+002036
X+006330Y+002290
X+006584Y+002290
X+006488Y+007926
X+006742Y+007926
X+006996Y+007926
X+007250Y+007926
X+007504Y+007926
X+007758Y+007926
X+008012Y+007926
X+006441Y+002941
X+006441Y+002687
X+007250Y+007672
X+006996Y+007672
X+006742Y+007672
X+006695Y+002941
X+006695Y+002687
X+006949Y+002687
X+006949Y+002941
X+007203Y+002941
X+007203Y+002687
X+008012Y+007672
X+007758Y+007672
X+007504Y+007672
X+011029Y+003687
X+011029Y+003433
X+010775Y+003687
X+010775Y+003433
X+010521Y+003687
X+010521Y+003433
X+010267Y+003687
X+010267Y+003433
X+010013Y+003687
X+010013Y+003433
X+009759Y+003687
X+009759Y+003433
X+009505Y+003687
X+009505Y+003433
X+009251Y+003687
X+009251Y+003433
X+008997Y+003687
X+008997Y+003433
X+008743Y+003687
X+008743Y+003433
X+008489Y+003687
X+008489Y+003433
X+008235Y+003687
X+008235Y+003433
X+007981Y+003687
X+007981Y+003433
X+007727Y+003687
X+007727Y+003433
X+007473Y+003687
X+007473Y+003433
X+008266Y+008212
X+008266Y+008466
X+008266Y+008720
X+008266Y+008974
X+008266Y+009228
X+008266Y+009482
X+009378Y+010181
X+009378Y+010435
X+009632Y+010181
X+009632Y+010435
X+009886Y+010181
X+009886Y+010435
X+010140Y+010181
X+010140Y+010435
X+010394Y+010181
X+010394Y+010435
X+010648Y+010181
X+010648Y+010435
X+009600Y+003052
X+009600Y+002798
X+009854Y+002798
X+010108Y+002798
X+009854Y+003052
X+010108Y+003052
X+010362Y+003052
X+010362Y+002798
X+010569Y+002163
X+010823Y+002163
X+011077Y+002163
X+011124Y+006148
X+011124Y+005894
X+010870Y+006148
X+010870Y+005894
X+010616Y+006148
X+010616Y+005894
X+011124Y+005640
X+010870Y+005640
X+010616Y+005640
X+010616Y+003052
X+010616Y+002798
X+010918Y+003163
X+010918Y+002909
X+011108Y+010784
X+011362Y+010784
X+011108Y+010530
X+011362Y+010530
X+011108Y+010276
X+011362Y+010276
X+011108Y+010022
X+011362Y+010022
X+011378Y+007164
X+011632Y+007164
X+011378Y+006910
X+011632Y+006910
X+011378Y+006656
X+011632Y+006656
X+011378Y+006402
X+011632Y+006402
X+011378Y+006148
X+011632Y+006148
X+011378Y+005894
X+011632Y+005894
X+011378Y+005640
X+011632Y+005640
X+011378Y+005386
X+011632Y+005386
X+011378Y+005132
X+011632Y+005132
X+011378Y+004878
X+011632Y+004878
X+011378Y+004624
X+011632Y+004624
X+011378Y+004370
X+011632Y+004370
X+011378Y+004116
X+011632Y+004116
X+011378Y+003862
X+011632Y+003862
X+011378Y+003608
X+011632Y+003608
T04
X+012633Y+010052
X+012909Y+010052
X+013185Y+010052
X+013461Y+010052
X+013737Y+010052
X+014013Y+010052
X+014289Y+010052
X+014565Y+010052
X+014841Y+010052
X+015117Y+010052
X+015394Y+010052
X+015670Y+010052
X+015945Y+010052
X+012771Y+010336
X+013047Y+010336
X+013323Y+010336
X+013599Y+010336
X+013875Y+010336
X+014151Y+010336
X+014427Y+010336
X+014703Y+010336
X+014979Y+010336
X+015256Y+010336
X+015532Y+010336
X+015808Y+010336
T08
X+011937Y+010194
X+016642Y+010194
T05
X+011886Y+006910
X+011886Y+007164
X+011886Y+007418
X+011886Y+007672
X+011886Y+007926
X+011886Y+008180
X+012331Y+002846
X+012331Y+003100
X+012585Y+003100
X+012585Y+002846
X+014013Y+002751
X+014013Y+002497
X+014013Y+002243
X+017332Y+008704
X+017078Y+008704
X+016824Y+008704
X+016570Y+008704
X+016316Y+008704
X+016062Y+008704
X+015808Y+008704
X+015554Y+008704
X+015300Y+008704
X+015046Y+008704
X+014792Y+008704
X+017491Y+010022
X+017237Y+010022
X+017491Y+010276
X+017237Y+010276
X+017491Y+010530
X+017237Y+010530
X+017491Y+010784
X+017237Y+010784
T07
X+001360Y+005386
X+001360Y+001369
T02
X+008425Y+005053
X+008425Y+004878
X+008425Y+004703
X+009902Y+005497
X+009902Y+005180
T01
X+014474Y+002322
X+016967Y+004402
X+017205Y+008371
X+017602Y+008307
X+005992Y+002220
X+006076Y+001941
X+006681Y+002156
X+006711Y+001893
X+006966Y+004616
X+007219Y+001766
X+007437Y+008873
X+007647Y+005386
X+007663Y+001957
X+007859Y+001756
X+007901Y+006084
X+007959Y+001885
X+008203Y+001798
X+008395Y+001931
X+008584Y+001830
X+008722Y+001802
X+008997Y+002116
X+009156Y+001931
X+009298Y+001798
X+009664Y+001798
X+009759Y+009974
X+009854Y+001846
X+010870Y+009705
X+012283Y+007260
X+012474Y+008546
X+012966Y+004815
X+010426Y+005910
X+014998Y+004306
X+016792Y+004164
X+014633Y+006339
X+016729Y+006561
X+013141Y+005688
X+013125Y+004878
X+012125Y+005338
X+010362Y+005767
X+010346Y+005688
X+010378Y+005608
X+010378Y+005529
X+011108Y+004751
X+011569Y+003306
X+011283Y+002957
X+010505Y+004434
X+011220Y+002846
X+010569Y+004370
X+011156Y+002766
X+010505Y+004275
X+010870Y+004133
X+010251Y+002274
X+009124Y+003814
X+009122Y+004239
X+008902Y+002925
X+009021Y+004204
X+008971Y+003944
X+008917Y+004243
X+008362Y+003163
X+008743Y+004259
X+007600Y+003243
X+008298Y+004306
X+007139Y+003592
X+007139Y+003687
X+006615Y+003767
X+007012Y+003544
X+006615Y+003862
X+006949Y+003608
X+006885Y+003719
X+008982Y+006561
X+008298Y+005771
X+006980Y+005989
X+006980Y+005656
X+007552Y+006196
X+007933Y+006228
X+008409Y+005989
X+008648Y+006005
X+007870Y+008085
X+008282Y+007879
X+008743Y+007132
X+008997Y+006434
X+008775Y+006005
X+008902Y+006005
X+011616Y+002830
X+010394Y+002497
X+009362Y+004227
X+008425Y+002481
X+008568Y+004386
X+006869Y+005211
X+004170Y+005545
X+009807Y+005307
X+008505Y+005386
X+008449Y+005616
X+007377Y+005402
X+007187Y+005402
X+006790Y+006148
X+009076Y+006513
X+008282Y+005386
X+004662Y+006196
X+004917Y+005116
X+004694Y+004592
X+008806Y+006783
X+008266Y+005465
X+005917Y+006450
X+005282Y+004815
X+005346Y+005894
X+005488Y+006116
X+004599Y+006116
X+009553Y+002306
X+009632Y+004259
X+010743Y+006021
X+010410Y+006021
X+004964Y+007323
X+012252Y+007053
X+012140Y+008784
X+010172Y+009228
X+010045Y+009308
X+008124Y+009292
X+008028Y+009419
X+006377Y+008958
X+006282Y+008593
X+010822Y+007180
X+009949Y+006434
X+014633Y+007625
X+016729Y+007625
X+014649Y+005656
X+016697Y+005656
X+013172Y+007069
X+012236Y+006323
X+005218Y+008069
X+007790Y+009736
X+008171Y+009768
X+009822Y+009832
X+011077Y+009784
X+013077Y+007958
X+013236Y+007799
X+014633Y+007974
X+005250Y+007037
X+009775Y+006069
X+005377Y+007974
X+007949Y+009641
X+008552Y+009641
X+010076Y+009832
X+010553Y+009832
X+010902Y+009117
X+011204Y+008815
X+011267Y+008688
X+012109Y+006910
X+005472Y+007021
X+010553Y+007799
X+009711Y+006355
X+014379Y+007418
X+016475Y+007418
X+014395Y+004783
X+016443Y+004878
X+014379Y+007688
X+013426Y+007529
X+014379Y+007815
X+012966Y+008720
X+010902Y+010022
X+010378Y+010022
X+005440Y+007720
X+003995Y+006910
X+004186Y+006847
X+010402Y+007950
X+009616Y+006497
X+010997Y+008704
X+010632Y+008704
X+005552Y+007482
X+006218Y+008133
X+007790Y+008514
X+008521Y+008260
X+008521Y+008863
X+010600Y+008990
X+005615Y+006863
X+004202Y+006640
X+004059Y+010117
X+003742Y+010086
X+011061Y+006386
X+010632Y+006386
X+010378Y+006386
X+004917Y+007053
X+006218Y+008688
X+006282Y+009022
X+008076Y+009498
X+008679Y+009260
X+009949Y+009308
X+010076Y+009181
X+012283Y+008720
X+012236Y+007148
X+010553Y+007688
X+009822Y+006450
X+014506Y+007529
X+016602Y+007529
X+014522Y+004719
X+016570Y+004846
X+011172Y+008895
X+010822Y+008625
X+005282Y+008006
X+007870Y+009705
X+008425Y+009705
X+010013Y+009895
X+010997Y+009720
X+011759Y+009085
X+005361Y+007037
X+011124Y+006545
X+010632Y+006545
X+010378Y+006529
X+005488Y+007958
X+008012Y+009578
X+008425Y+009578
X+010140Y+009768
X+010457Y+009768
X+010791Y+009117
X+011124Y+008752
X+011362Y+008657
X+012077Y+007069
X+005552Y+006926
X+010553Y+007895
X+009680Y+006434
X+014268Y+004862
X+016316Y+004862
X+014204Y+007529
X+012823Y+007863
X+012315Y+007355
X+004964Y+006466
X+005393Y+006529
X+013061Y+008752
X+005377Y+007641
X+004647Y+007053
X+003996Y+006783
X+004170Y+006767
X+010315Y+007958
X+009552Y+006592
X+014014Y+004926
X+016062Y+004926
X+005679Y+007260
X+006282Y+008053
X+007774Y+008419
X+008616Y+008260
X+008616Y+008847
X+010696Y+008927
X+005615Y+006720
X+004329Y+006640
X+003980Y+010165
X+009378Y+003910
X+009251Y+002973
X+008473Y+005465
X+007933Y+005434
X+014093Y+003973
X+015935Y+003973
X+013871Y+005799
X+015967Y+005799
X+009854Y+005926
X+011267Y+007879
X+012394Y+007942
X+012252Y+007799
X+012648Y+006609
X+008632Y+004338
X+007663Y+004894
X+007901Y+004894
X+006742Y+002449
X+007425Y+006021
X+009505Y+006862
X+008505Y+005799
X+007107Y+005894
X+007107Y+005767
X+013966Y+003910
X+015808Y+003910
X+015729Y+006688
X+014665Y+006497
X+014125Y+006386
X+013744Y+005958
X+011267Y+007974
X+012426Y+007863
X+012283Y+007720
X+012775Y+006609
X+006901Y+002306
X+007394Y+005894
X+009441Y+006926
X+008505Y+005894
X+013839Y+003846
X+015681Y+003846
X+015617Y+006640
X+013617Y+006370
X+011267Y+008053
X+013029Y+007244
X+012760Y+006974
X+012934Y+006640
X+009330Y+003087
X+010330Y+008069
X+009171Y+006005
X+012887Y+009435
X+013887Y+005005
X+015935Y+005005
X+012315Y+004942
X+015967Y+006942
X+017173Y+006942
X+010172Y+008260
X+013252Y+009435
X+013760Y+005084
X+015808Y+005084
X+015840Y+006879
X+017300Y+005783
X+010092Y+008307
X+013617Y+009435
X+013633Y+005180
X+015681Y+005180
X+015713Y+006815
X+017237Y+005608
X+009965Y+008228
X+013966Y+009403
X+015554Y+005243
X+013506Y+005306
X+008743Y+007561
X+015506Y+005735
X+013204Y+005831
X+008806Y+007625
X+015332Y+006672
X+013236Y+006291
X+012950Y+007974
X+012394Y+007291
X+012934Y+006291
X+008870Y+007688
X+013538Y+003798
X+015236Y+003719
X+013363Y+006434
X+015459Y+006577
X+015475Y+006879
X+008933Y+007752
X+013696Y+003783
X+015554Y+003783
X+015538Y+006497
X+013490Y+006402
X+013061Y+007387
X+012728Y+007053
X+013077Y+006656
X+008506Y+007402
X+014252Y+009403
X+013395Y+007402
X+008426Y+007339
X+014522Y+009419
X+013299Y+007402
X+008346Y+007275
X+014887Y+009482
X+014236Y+005656
X+013188Y+005323
X+013411Y+005100
X+012363Y+007688
X+012902Y+008228
X+012315Y+009339
X+008266Y+007212
X+017459Y+005704
X+010156Y+006879
X+009822Y+004338
X+014347Y+004100
X+016316Y+004100
X+014252Y+005989
X+016348Y+006402
X+017094Y+005370
X+010854Y+002782
X+007935Y+006386
X+007108Y+007593
X+007520Y+007006
X+007711Y+006513
X+008124Y+007291
X+007901Y+005021
X+007441Y+005465
X+006917Y+005116
X+006584Y+005640
X+004837Y+005227
X+007838Y+005307
X+007377Y+005561
X+006838Y+005402
X+006758Y+005942
X+005028Y+005878
X+009044Y+006720
X+008298Y+005672
X+006917Y+005450
X+004774Y+005847
X+004662Y+005211
X+004281Y+004608
X+004932Y+006180
X+006060Y+006529
X+010299Y+002497
X+010235Y+006847
X+009886Y+004291
X+014458Y+004164
X+016443Y+004164
X+016157Y+006450
X+014379Y+006355
X+017094Y+005275
X+011362Y+003354
X+012529Y+003902
X+016443Y+003941
X+008330Y+004529
X+014220Y+004037
X+016062Y+004037
X+013998Y+005862
X+016094Y+005862
X+016935Y+005211
X+011347Y+007783
X+012315Y+008117
X+012188Y+007863
X+012998Y+006370
X+011045Y+009657
X+012664Y+008466
X+010013Y+005862
X+010742Y+007101
X+014760Y+007704
X+016856Y+007704
X+014887Y+005482
X+016903Y+005482
X+012252Y+005497
X+006853Y+005847
X+006853Y+005513
X+010346Y+006624
X+010918Y+006767
X+011426Y+007450
X+009314Y+006482
X+010378Y+008196
X+007886Y+008815
X+010569Y+009070
X+007790Y+006608
X+007870Y+007561
X+007568Y+006608
X+010076Y+006942
X+009711Y+004322
X+014982Y+004497
X+016189Y+004561
X+014125Y+005926
X+016221Y+005958
X+017030Y+005227
X+013299Y+004592
X+008155Y+006259
X+008155Y+006926
X+011918Y+009593
X+012521Y+009419
X+016221Y+007021
X+017284Y+006910
X+017253Y+007466
X+009981Y+004291
X+010378Y+006894
X+014554Y+004227
X+016570Y+004227
X+014506Y+006355
X+016602Y+006529
X+013109Y+005910
X+013093Y+004227
X+008600Y+004767
X+007409Y+004418
X+006885Y+004148
X+005949Y+004656
X+006536Y+005386
X+006584Y+005783
X+006726Y+005783
X+007187Y+004894
X+007711Y+005180
X+007838Y+005211
X+007933Y+005100
X+007584Y+005180
X+006901Y+004989
X+006425Y+005132
X+006266Y+005164
X+005980Y+005069
X+006933Y+003798
X+010362Y+006719
X+010854Y+006862
X+011505Y+007513
X+010315Y+008244
X+009187Y+006085
X+007981Y+008720
X+010410Y+008958
X+006949Y+001798
X+010346Y+006085
X+014951Y+004402
X+014760Y+006450
X+016856Y+006434
X+010870Y+007879
X+009124Y+007053
X+012188Y+001798
X+009964Y+002275
X+009727Y+002275
X+012252Y+007434
X+013045Y+008117
X+013157Y+008641
X+013490Y+008704
X+017442Y+002116
X+016839Y+002794
X+015665Y+002878
X+006663Y+009800
X+006600Y+007323
X+009457Y+008624
X+003089Y+009403
X+009029Y+008625
X+008822Y+008688
X+008997Y+008863
X+009584Y+008752
X+008822Y+008227
X+009537Y+007593
X+009664Y+007688
X+009378Y+007637
X+010600Y+008053
X+002825Y+007355
X+007933Y+004735
X+007393Y+004799
X+008838Y+004862
X+009029Y+005672
X+006853Y+001798
X+005059Y+003179
X+006552Y+003925
X+006552Y+004561
X+006933Y+004529
X+007870Y+006704
X+008251Y+004243
X+008139Y+004132
X+008378Y+003925
X+008568Y+003878
X+009537Y+005989
X+010553Y+004688
X+010457Y+005037
X+010997Y+005402
X+009695Y+004465
X+009171Y+004354
X+010332Y+003989
X+007092Y+001846
X+007235Y+001973
X+007298Y+001830
X+007758Y+001846
X+008521Y+001766
X+009394Y+001798
X+011474Y+002068
X+012585Y+002243
X+015039Y+002882
X+010473Y+004116
X+010521Y+003925
X+012521Y+001782
X+012775Y+001782
X+012902Y+001798
X+009711Y+002560
X+009997Y+002560
X+015299Y+002084
X+007568Y+009784
X+011696Y+008847
X+003473Y+009578
X+005409Y+009784
X+004315Y+007115
X+003250Y+009970
X+003170Y+007625
X+002583Y+005767
X+002583Y+006704
X+003267Y+003925
X+003916Y+002671
X+006187Y+002639
X+005663Y+001782
X+005917Y+003306
X+005980Y+004846
X+005980Y+001941
X+007441Y+001862
X+005790Y+004846
X+016824Y+008038
X+016570Y+008038
X+016316Y+008038
X+016062Y+008038
X+015808Y+008038
X+015570Y+008038
X+011823Y+001877
X+015316Y+008053
X+010505Y+001877
X+011886Y+002084
X+012093Y+001925
X+012267Y+001846
X+017395Y+002560
X+016760Y+003830
X+016791Y+003513
X+016791Y+003227
X+010410Y+006148
X+004742Y+002639
X+005631Y+002687
X+005901Y+003449
X+009934Y+005894
X+006520Y+004148
X+006901Y+004037
X+007330Y+004322
X+007663Y+003989
X+009473Y+004497
X+010076Y+004846
X+012410Y+004306
X+015665Y+003068
X+006758Y+001814
X+006107Y+001846
X+010346Y+001846
X+010743Y+001846
X+011235Y+002306
X+011188Y+001877
X+011696Y+001909
X+012410Y+001957
X+012648Y+001989
X+007520Y+007101
X+007568Y+006370
X+017078Y+008038
X+007044Y+005243
X+015205Y+006990
X+013014Y+007053
X+013125Y+005133
X+014966Y+005354
X+011489Y+007641
X+008838Y+007117
X+008965Y+007117
X+009457Y+007498
X+013331Y+004846
X+013950Y+004576
X+013395Y+003767
X+013299Y+003005
X+006806Y+007307
X+007330Y+007212
X+008044Y+008529
X+007568Y+005402
X+009664Y+008180
X+009298Y+007641
X+009695Y+008831
X+009267Y+008704
X+009553Y+009355
X+009076Y+008704
X+009743Y+007752
X+009092Y+005989
X+005139Y+005862
X+009902Y+009181
X+009378Y+009181
X+006028Y+007482
X+005742Y+004465
X+005996Y+004291
X+007298Y+006450
X+007489Y+005958
X+008235Y+005227
X+008282Y+004735
X+008679Y+004561
X+008505Y+005259
X+009298Y+004354
X+009203Y+004259
X+008425Y+004370
X+009140Y+004640
X+008679Y+006085
X+009425Y+005958
X+009648Y+006037
X+009505Y+006069
X+010362Y+005053
X+010442Y+004656
X+010712Y+003894
X+010569Y+004116
X+007092Y+009800
X+006869Y+009800
X+016791Y+003687
X+005917Y+003878
X+006885Y+004243
X+007330Y+004608
X+007901Y+004656
X+008711Y+004481
X+009441Y+004259
X+009711Y+005974
X+008473Y+005720
X+009854Y+004576
X+008600Y+005370
X+008600Y+005577
X+008933Y+005878
X+010759Y+004148
X+011061Y+003830
X+011315Y+003481
X+012331Y+003973
X+015729Y+002973
X+007139Y+002544
X+003932Y+006307
X+004012Y+006497
T00
M30
